<?xml version="1.0" standalone="no"?><!DOCTYPE svg PUBLIC "-//W3C//DTD SVG 1.1//EN" "http://www.w3.org/Graphics/SVG/1.1/DTD/svg11.dtd"><svg class="icon" height="512" viewBox="0 0 1024 1024" version="1.1" xmlns="http://www.w3.org/2000/svg"><path d="M512 1024C229.2 1024 0 794.8 0 512S229.2 0 512 0s512 229.2 512 512-229.2 512-512 512z m215.1-651.4c21.2-21.2 21.2-55.6 0-76.8-21.2-21.3-55.6-21.3-76.9 0L512 434 373.7 295.7c-21.2-21.3-55.6-21.3-76.8 0-21.2 21.2-21.2 55.6 0 76.8l138.3 138.3-139.5 139.5c-21.2 21.3-21.2 55.6 0 76.9 21.2 21.2 55.6 21.2 76.8 0L512 587.7l139.4 139.4c21.3 21.2 55.7 21.2 76.9 0 21.3-21.3 21.3-55.6 0-76.9L588.8 510.9l138.3-138.3z" /></svg>